<svg xmlns="http://www.w3.org/2000/svg" width="106.667" height="106.667" preserveAspectRatio="xMidYMid meet" version="1.0" viewBox="0 0 80 80"><metadata>Created by potrace 1.14, written by Peter Selinger 2001-2017</metadata><g fill="#000" stroke="none"><path d="M536 789 c2 -4 -2 -10 -8 -12 -7 -3 -3 -6 10 -7 31 -3 34 -4 58 -18 12 -6 24 -8 28 -5 3 3 6 -2 6 -13 0 -25 -32 -117 -44 -126 -5 -3 -24 2 -42 13 -19 10 -34 16 -34 13 0 -4 -6 -2 -12 3 -15 12 -94 10 -121 -2 -26 -11 -46 -56 -37 -81 10 -25 43 -48 111 -75 128 -50 166 -75 203 -131 32 -49 41 -143 20 -204 l-12 -36 31 6 c18 4 39 7 48 7 9 0 27 11 39 24 19 20 22 31 16 67 -7 51 -14 83 -17 83 -2 0 -5 18 -13 65 -2 14 -5 27 -7 30 -1 3 -3 10 -4 15 -6 39 -19 82 -27 93 -7 8 -7 12 0 12 7 0 6 13 -3 38 -7 20 -21 75 -31 121 -24 110 -37 126 -107 126 -31 1 -54 -2 -51 -6z" transform="translate(0.000000,80.000000) scale(0.100000,-0.100000)"/><path d="M107 690 c-91 -24 -112 -46 -102 -108 4 -26 8 -56 9 -68 1 -11 5 -25 9 -31 4 -6 8 -23 9 -37 1 -14 5 -26 9 -26 3 0 6 -8 6 -17 -1 -32 15 -103 24 -109 5 -3 7 -9 4 -14 -3 -5 0 -21 5 -36 6 -15 11 -42 12 -61 1 -18 4 -33 8 -33 4 0 10 -23 14 -51 10 -70 41 -101 100 -98 32 2 43 6 39 16 -3 7 -11 13 -17 13 -22 0 -66 25 -66 37 0 12 46 122 54 131 2 2 18 -4 35 -12 17 -9 34 -17 38 -17 5 -1 16 -5 26 -11 19 -10 77 -12 112 -4 11 2 23 5 27 5 15 2 39 35 34 48 -3 8 -1 11 4 8 14 -9 12 1 -4 33 -13 25 -50 62 -61 62 -18 0 -195 94 -218 115 -45 42 -69 100 -66 158 1 29 6 60 11 70 9 17 20 59 15 56 -1 -1 -33 -10 -70 -19z" transform="translate(0.000000,80.000000) scale(0.100000,-0.100000)"/></g></svg>